<?xml version="1.0" encoding="UTF-8"?>
<!DOCTYPE svg PUBLIC "-//W3C//DTD SVG 1.1//EN" "http://www.w3.org/Graphics/SVG/1.1/DTD/svg11.dtd">
<svg xmlns="http://www.w3.org/2000/svg" version="1.1" width="48px" height="48px" style="shape-rendering:geometricPrecision; text-rendering:geometricPrecision; image-rendering:optimizeQuality; fill-rule:evenodd; clip-rule:evenodd" xmlns:xlink="http://www.w3.org/1999/xlink">
<g><path style="opacity:0.975" fill="#242321" d="M 41.5,14.5 C 41.6309,13.6236 41.2975,12.9569 40.5,12.5C 38.9246,13.4565 37.258,14.1231 35.5,14.5C 35.5,14.1667 35.5,13.8333 35.5,13.5C 36.8333,13.1667 36.8333,12.8333 35.5,12.5C 33.5137,8.51367 30.5137,5.51367 26.5,3.5C 25.8333,3.66667 25.1667,3.83333 24.5,4C 27.9024,5.39988 30.7357,7.56655 33,10.5C 33.2387,11.788 32.7387,12.788 31.5,13.5C 31.5,13.8333 31.5,14.1667 31.5,14.5C 29.6425,10.9898 26.9759,8.1565 23.5,6C 21.5273,5.50454 19.5273,5.33788 17.5,5.5C 16.5041,5.58577 15.6708,5.25244 15,4.5C 14.1841,5.82277 13.0174,6.48944 11.5,6.5C 16.57,0.905493 22.9034,-0.92784 30.5,1C 34.8133,2.30618 38.3133,4.80618 41,8.5C 41.6172,9.44915 41.4506,10.2825 40.5,11C 42.7801,11.2326 44.7801,12.066 46.5,13.5C 45.286,15.7542 43.6194,16.0875 41.5,14.5 Z"/></g>
<g><path style="opacity:1" fill="#aaa7a2" d="M 35.5,12.5 C 35.5,12.8333 35.5,13.1667 35.5,13.5C 34.1667,13.5 32.8333,13.5 31.5,13.5C 32.7387,12.788 33.2387,11.788 33,10.5C 30.7357,7.56655 27.9024,5.39988 24.5,4C 25.1667,3.83333 25.8333,3.66667 26.5,3.5C 30.5137,5.51367 33.5137,8.51367 35.5,12.5 Z"/></g>
<g><path style="opacity:1" fill="#aaa8a4" d="M 17.5,5.5 C 19.5273,5.33788 21.5273,5.50454 23.5,6C 26.9759,8.1565 29.6425,10.9898 31.5,14.5C 31.8333,14.5 32.1667,14.5 32.5,14.5C 31.7494,15.5735 30.7494,15.7401 29.5,15C 26.7523,10.0682 22.7523,6.90158 17.5,5.5 Z"/></g>
<g><path style="opacity:0.984" fill="#1e1c1c" d="M 17.5,5.5 C 22.7523,6.90158 26.7523,10.0682 29.5,15C 30.7494,15.7401 31.7494,15.5735 32.5,14.5C 32.8333,14.5 33.1667,14.5 33.5,14.5C 32.7886,16.2014 31.4553,17.2014 29.5,17.5C 28.5446,21.7895 25.8779,23.7895 21.5,23.5C 23.2432,21.8739 23.7432,19.8739 23,17.5C 22.7216,18.4158 22.2216,19.0825 21.5,19.5C 20.35,17.7333 21.0167,16.5666 23.5,16C 23.2716,15.6012 22.9382,15.4346 22.5,15.5C 21.5652,13.1386 20.2318,10.9719 18.5,9C 15.6385,9.03019 13.3052,8.19686 11.5,6.5C 13.0174,6.48944 14.1841,5.82277 15,4.5C 15.6708,5.25244 16.5041,5.58577 17.5,5.5 Z M 29.5,17.5 C 28.2502,17.5774 27.4169,18.244 27,19.5C 25.9794,15.3252 26.8127,14.6585 29.5,17.5 Z"/></g>
<g><path style="opacity:0.114" fill="#55514f" d="M 15.5,13.5 C 13.834,12.3336 12.1673,12.3336 10.5,13.5C 11.0977,18.788 10.4311,18.788 8.5,13.5C 8.23798,12.0222 8.57131,10.6888 9.5,9.5C 10.7321,10.1445 12.0654,10.3112 13.5,10C 14.8228,10.8159 15.4894,11.9826 15.5,13.5 Z"/></g>
<g><path style="opacity:0.94" fill="#181616" d="M 15.5,13.5 C 13.8022,18.1536 15.4689,20.8203 20.5,21.5C 20.3284,22.4916 20.6618,23.1583 21.5,23.5C 25.8779,23.7895 28.5446,21.7895 29.5,17.5C 31.4553,17.2014 32.7886,16.2014 33.5,14.5C 34.1667,14.5 34.8333,14.5 35.5,14.5C 37.258,14.1231 38.9246,13.4565 40.5,12.5C 41.2975,12.9569 41.6309,13.6236 41.5,14.5C 45.6747,18.8803 46.508,23.8803 44,29.5C 38.7266,31.8029 34.8933,30.4695 32.5,25.5C 32.8146,23.7741 32.9813,22.1075 33,20.5C 30.6506,23.0168 28.1506,25.3501 25.5,27.5C 24.8165,27.1373 24.1499,26.8039 23.5,26.5C 14.4944,28.3349 8.49437,25.0016 5.5,16.5C 6.10008,15.0998 7.10008,14.0998 8.5,13.5C 10.4311,18.788 11.0977,18.788 10.5,13.5C 12.1673,12.3336 13.834,12.3336 15.5,13.5 Z M 29.5,17.5 C 26.8127,14.6585 25.9794,15.3252 27,19.5C 27.4169,18.244 28.2502,17.5774 29.5,17.5 Z M 21.5,23.5 C 20.6618,23.1583 20.3284,22.4916 20.5,21.5C 21.3382,21.1583 21.6716,20.4916 21.5,19.5C 22.2216,19.0825 22.7216,18.4158 23,17.5C 23.7432,19.8739 23.2432,21.8739 21.5,23.5 Z M 36.5,21.5 C 37.9755,22.262 39.3088,22.5953 40.5,22.5C 38.8729,24.7214 37.5395,24.3881 36.5,21.5 Z M 11.5,22.5 C 11.9169,21.8761 12.5836,21.5427 13.5,21.5C 15.2662,22.0909 16.9328,22.9242 18.5,24C 15.9348,24.6089 13.6015,24.1089 11.5,22.5 Z"/></g>
<g><path style="opacity:0.639" fill="#0a0505" d="M 18.5,14.5 C 19.4916,14.3284 20.1583,14.6618 20.5,15.5C 19.8444,16.2778 19.0111,16.9444 18,17.5C 17.5,17.1667 17,16.8333 16.5,16.5C 17.2427,15.8182 17.9094,15.1515 18.5,14.5 Z"/></g>
<g><path style="opacity:1" fill="#6f6461" d="M 15.5,13.5 C 16.609,13.5569 17.609,13.8902 18.5,14.5C 17.9094,15.1515 17.2427,15.8182 16.5,16.5C 17,16.8333 17.5,17.1667 18,17.5C 19.0111,16.9444 19.8444,16.2778 20.5,15.5C 21.1667,15.5 21.8333,15.5 22.5,15.5C 22.9382,15.4346 23.2716,15.6012 23.5,16C 21.0167,16.5666 20.35,17.7333 21.5,19.5C 21.6716,20.4916 21.3382,21.1583 20.5,21.5C 15.4689,20.8203 13.8022,18.1536 15.5,13.5 Z"/></g>
<g><path style="opacity:1" fill="#9d9997" d="M 4.5,16.5 C 4.83333,16.5 5.16667,16.5 5.5,16.5C 8.49437,25.0016 14.4944,28.3349 23.5,26.5C 22.3064,27.7773 20.6397,28.4439 18.5,28.5C 11.074,27.7419 6.40729,23.7419 4.5,16.5 Z"/></g>
<g><path style="opacity:1" fill="#96918f" d="M 25.5,32.5 C 25.5,32.8333 25.5,33.1667 25.5,33.5C 20.3077,33.9088 15.3077,33.2421 10.5,31.5C 8.83333,30.1667 7.16667,28.8333 5.5,27.5C 3.58596,24.8488 2.75262,21.8488 3,18.5C 7.32409,28.3326 14.8241,32.9992 25.5,32.5 Z"/></g>
<g><path style="opacity:0.998" fill="#22201f" d="M 4.5,16.5 C 6.40729,23.7419 11.074,27.7419 18.5,28.5C 20.6397,28.4439 22.3064,27.7773 23.5,26.5C 24.1499,26.8039 24.8165,27.1373 25.5,27.5C 28.1506,25.3501 30.6506,23.0168 33,20.5C 32.9813,22.1075 32.8146,23.7741 32.5,25.5C 31.448,25.3505 30.448,25.5172 29.5,26C 29.1667,27 28.8333,28 28.5,29C 24.7548,28.9646 24.0881,29.9646 26.5,32C 26.2716,32.3988 25.9382,32.5654 25.5,32.5C 14.8241,32.9992 7.32409,28.3326 3,18.5C 2.75262,21.8488 3.58596,24.8488 5.5,27.5C 6.72521,31.3884 9.05854,34.3884 12.5,36.5C 11.1667,36.5 10.5,37.1667 10.5,38.5C 3.17233,32.7131 0.00566414,25.0465 1,15.5C 2.95282,11.5782 4.11949,11.9115 4.5,16.5 Z M 11.5,22.5 C 13.6015,24.1089 15.9348,24.6089 18.5,24C 16.9328,22.9242 15.2662,22.0909 13.5,21.5C 12.5836,21.5427 11.9169,21.8761 11.5,22.5 Z"/></g>
<g><path style="opacity:1" fill="#bfb5b1" d="M 5.5,27.5 C 7.16667,28.8333 8.83333,30.1667 10.5,31.5C 14.8907,36.6416 19.8907,37.6416 25.5,34.5C 27.1042,35.287 27.7709,36.6203 27.5,38.5C 22.3077,38.9088 17.3077,38.2421 12.5,36.5C 9.05854,34.3884 6.72521,31.3884 5.5,27.5 Z"/></g>
<g><path style="opacity:0.993" fill="#262423" d="M 10.5,31.5 C 15.3077,33.2421 20.3077,33.9088 25.5,33.5C 25.5,33.8333 25.5,34.1667 25.5,34.5C 19.8907,37.6416 14.8907,36.6416 10.5,31.5 Z"/></g>
<g><path style="opacity:0.916" fill="#1b1919" d="M 12.5,36.5 C 17.3077,38.2421 22.3077,38.9088 27.5,38.5C 29.3742,40.1147 30.7075,42.1147 31.5,44.5C 27.1539,44.6657 22.8206,44.499 18.5,44C 15.2444,42.884 12.5777,41.0507 10.5,38.5C 10.5,37.1667 11.1667,36.5 12.5,36.5 Z"/></g>
</svg>
